<?xml version="1.0" standalone="no"?>
<!DOCTYPE svg PUBLIC "-//W3C//DTD SVG 20010904//EN"
 "http://www.w3.org/TR/2001/REC-SVG-20010904/DTD/svg10.dtd">
<svg version="1.0" xmlns="http://www.w3.org/2000/svg"
 width="94.000000pt" height="140.000000pt" viewBox="0 0 94.000000 140.000000"
 preserveAspectRatio="xMidYMid meet">

<g transform="translate(0.000000,140.000000) scale(0.100000,-0.100000)"
fill="#000000" stroke="none">
<path d="M232 1357 c-17 -18 -22 -36 -22 -75 0 -54 -12 -66 -30 -32 -6 11 -28
29 -50 40 -38 19 -39 19 -62 1 l-23 -19 71 -74 c112 -116 101 -60 108 -577 6
-452 9 -487 40 -475 8 3 16 -4 19 -15 6 -24 16 -26 40 -9 16 12 17 41 9 398
-5 212 -7 388 -5 392 6 12 57 -43 89 -96 16 -27 37 -63 48 -80 16 -27 17 -36
6 -86 -7 -30 -16 -60 -21 -66 -5 -6 -13 -31 -19 -55 -5 -24 -18 -83 -29 -130
-12 -48 -22 -113 -23 -145 -3 -53 -1 -59 17 -62 41 -6 55 19 70 120 16 104 47
246 64 291 8 21 16 27 30 22 11 -3 24 1 32 11 11 13 10 24 -4 64 -17 48 -17
50 7 117 37 105 117 266 126 257 17 -17 34 -256 45 -629 6 -216 15 -275 40
-275 7 0 16 -11 19 -24 3 -14 20 -31 36 -40 29 -14 31 -14 46 10 14 20 15 31
5 71 -25 97 -32 152 -37 278 -5 169 -21 372 -39 510 -8 61 -19 166 -25 235
-12 130 -21 153 -59 143 -24 -6 -39 -39 -36 -81 1 -18 -4 -37 -12 -43 -7 -6
-13 -17 -13 -23 0 -12 -31 -78 -47 -99 -5 -7 -26 -55 -47 -107 -52 -129 -65
-158 -76 -165 -5 -3 -35 34 -67 82 -31 48 -76 112 -100 141 -38 47 -43 60 -44
105 -2 139 -8 192 -26 204 -23 17 -26 17 -51 -10z"/>
</g>
</svg>
